<?xml version="1.0" encoding="iso-8859-1"?>
<!-- Generator: Adobe Illustrator 27.0.0, SVG Export Plug-In . SVG Version: 6.00 Build 0)  -->
<svg version="1.1" id="Layer_1" xmlns="http://www.w3.org/2000/svg" xmlns:xlink="http://www.w3.org/1999/xlink" x="0px" y="0px"
	 viewBox="0 0 500 500" style="enable-background:new 0 0 500 500;" xml:space="preserve">
<g id="watermark_1_">
	<g>
		<g id="watermark" style="opacity:0.00;">
			<g>
				<g>
					<g>
						<g>
							<polygon style="fill:#FFFFFF;" points="213.765,461.172 208.204,474.017 205.268,474.017 199.726,461.172 202.938,461.172 
								206.846,470.347 210.81,461.172 							"/>
						</g>
						<g>
							<path style="fill:#FFFFFF;" d="M223.507,469.741h-7.469c0.275,1.23,1.321,1.982,2.826,1.982c1.046,0,1.798-0.312,2.477-0.954
								l1.523,1.651c-0.917,1.046-2.294,1.597-4.074,1.597c-3.413,0-5.634-2.147-5.634-5.083c0-2.954,2.257-5.083,5.267-5.083
								c2.899,0,5.138,1.945,5.138,5.12C223.562,469.191,223.526,469.503,223.507,469.741 M216.002,468.071h4.863
								c-0.202-1.248-1.138-2.055-2.422-2.055C217.139,466.016,216.204,466.805,216.002,468.071"/>
						</g>
						<g>
							<path style="fill:#FFFFFF;" d="M224.735,468.934c0-2.973,2.294-5.083,5.505-5.083c2.074,0,3.707,0.899,4.423,2.514
								l-2.22,1.193c-0.532-0.936-1.321-1.358-2.221-1.358c-1.45,0-2.587,1.009-2.587,2.734c0,1.725,1.138,2.734,2.587,2.734
								c0.899,0,1.688-0.404,2.221-1.358l2.22,1.211c-0.716,1.578-2.349,2.495-4.423,2.495
								C227.029,474.017,224.735,471.907,224.735,468.934"/>
						</g>
						<g>
							<path style="fill:#FFFFFF;" d="M242.828,473.393c-0.587,0.422-1.45,0.624-2.331,0.624c-2.33,0-3.688-1.193-3.688-3.542
								v-4.055h-1.523v-2.202h1.523v-2.404h2.863v2.404h2.459v2.202h-2.459v4.019c0,0.844,0.458,1.303,1.229,1.303
								c0.422,0,0.844-0.128,1.156-0.367L242.828,473.393z"/>
						</g>
					</g>
					<g>
						<path style="fill:#FFFFFF;" d="M262.474,463.997v2.643c-0.238-0.018-0.422-0.037-0.642-0.037
							c-1.578,0-2.624,0.862-2.624,2.753v4.661h-2.863v-9.873h2.734v1.303C259.776,464.493,260.951,463.997,262.474,463.997"/>
					</g>
					<g>
						<path style="fill:#FFFFFF;" d="M263.299,472.53l1.009-2.239c1.083,0.789,2.697,1.339,4.239,1.339
							c1.762,0,2.477-0.587,2.477-1.376c0-2.404-7.469-0.752-7.469-5.524c0-2.184,1.762-4,5.413-4c1.615,0,3.267,0.385,4.459,1.138
							l-0.918,2.257c-1.193-0.679-2.422-1.009-3.56-1.009c-1.761,0-2.44,0.66-2.44,1.468c0,2.367,7.468,0.734,7.468,5.45
							c0,2.147-1.78,3.982-5.45,3.982C266.492,474.017,264.437,473.411,263.299,472.53"/>
					</g>
					<g>
						<path style="fill:#FFFFFF;" d="M285.428,469.741h-7.469c0.275,1.23,1.321,1.982,2.826,1.982c1.046,0,1.798-0.312,2.477-0.954
							l1.523,1.651c-0.918,1.046-2.294,1.597-4.074,1.597c-3.413,0-5.634-2.147-5.634-5.083c0-2.954,2.257-5.083,5.267-5.083
							c2.9,0,5.138,1.945,5.138,5.12C285.484,469.191,285.447,469.503,285.428,469.741 M277.923,468.071h4.863
							c-0.202-1.248-1.138-2.055-2.422-2.055C279.061,466.016,278.125,466.805,277.923,468.071"/>
					</g>
					<g>
						<path style="fill:#FFFFFF;" d="M297.007,469.741h-7.469c0.275,1.23,1.321,1.982,2.826,1.982c1.046,0,1.798-0.312,2.477-0.954
							l1.523,1.651c-0.918,1.046-2.294,1.597-4.074,1.597c-3.413,0-5.634-2.147-5.634-5.083c0-2.954,2.257-5.083,5.267-5.083
							c2.899,0,5.138,1.945,5.138,5.12C297.062,469.191,297.025,469.503,297.007,469.741 M289.501,468.071h4.863
							c-0.202-1.248-1.138-2.055-2.422-2.055C290.639,466.016,289.703,466.805,289.501,468.071"/>
					</g>
					<g>
						<polygon style="fill:#FFFFFF;" points="303.208,470.145 301.831,471.503 301.831,474.017 298.969,474.017 298.969,460.401 
							301.831,460.401 301.831,468.108 306.016,464.144 309.429,464.144 305.318,468.328 309.796,474.017 306.327,474.017 						"/>
					</g>
					<g>
						<path style="fill:#FFFFFF;" d="M256.601,475.359L256.601,475.359l-2.86-2.86c-0.435,0.508-0.953,0.943-1.534,1.284
							c-0.092,0.069-0.186,0.136-0.283,0.199l3.027,3.027c0.456,0.456,1.195,0.456,1.65,0
							C257.057,476.554,257.057,475.815,256.601,475.359"/>
					</g>
					<g>
						<path style="fill:#FFFFFF;" d="M249.984,463.244c0.221-0.173,0.495-0.281,0.797-0.281c0.042,0,0.083,0.002,0.124,0.006
							c-0.214-0.156-0.478-0.249-0.764-0.249c-0.395,0-0.744,0.18-0.981,0.458c-0.051,0-0.1,0.006-0.151,0.008
							c0.039-0.077,0.064-0.162,0.064-0.255c0-0.234-0.143-0.434-0.346-0.519c0.087,0.126,0.138,0.279,0.138,0.445
							c0,0.122-0.031,0.237-0.081,0.341c-2.811,0.201-5.03,2.539-5.03,5.4c0,2.993,2.426,5.42,5.42,5.42
							c2.993,0,5.42-2.426,5.42-5.42C254.595,465.879,252.593,463.635,249.984,463.244 M247.983,464.656
							c0.435,0,0.844,0.112,1.199,0.309c0.374-0.245,0.82-0.387,1.299-0.387c0.711,0,1.348,0.312,1.784,0.806
							c-0.435-0.379-1.004-0.61-1.627-0.61c-0.449,0-0.87,0.12-1.234,0.329c-0.079,0.046-0.156,0.096-0.229,0.15
							c-0.065-0.048-0.133-0.093-0.204-0.134c-0.369-0.219-0.8-0.344-1.26-0.344c-0.3,0-0.588,0.054-0.854,0.152
							C247.196,464.754,247.578,464.656,247.983,464.656 M251.772,469.098c0.115,0.305,0.181,0.634,0.181,0.979
							c0,1.534-1.244,2.777-2.778,2.777c-1.534,0-2.777-1.243-2.777-2.777c0-0.345,0.066-0.674,0.181-0.979
							c-0.62-0.382-1.035-1.064-1.035-1.846c0-1.197,0.971-2.168,2.168-2.168c0.565,0,1.078,0.218,1.463,0.572
							c0.386-0.354,0.899-0.572,1.464-0.572c1.197,0,2.168,0.971,2.168,2.168C252.807,468.034,252.392,468.716,251.772,469.098"/>
					</g>
					<g>
						<path style="fill:#FFFFFF;" d="M251.666,467.061c0,0.497-0.404,0.901-0.901,0.901c-0.497,0-0.901-0.404-0.901-0.901
							s0.404-0.901,0.901-0.901c0.101,0,0.197,0.017,0.287,0.047c-0.03,0.062-0.045,0.132-0.045,0.204
							c0,0.273,0.221,0.494,0.494,0.494c0.05,0,0.099-0.008,0.146-0.022C251.66,466.941,251.666,467,251.666,467.061"/>
					</g>
					<g>
						<path style="fill:#FFFFFF;" d="M248.255,467.061c0,0.376-0.305,0.681-0.681,0.681c-0.376,0-0.681-0.305-0.681-0.681
							s0.305-0.681,0.681-0.681c0.076,0,0.149,0.013,0.217,0.035c-0.023,0.047-0.034,0.1-0.034,0.155
							c0,0.206,0.167,0.374,0.374,0.374c0.038,0,0.075-0.006,0.11-0.017C248.25,466.97,248.255,467.015,248.255,467.061"/>
					</g>
					<g>
						<g>
							<g>
								<rect x="242.908" y="467.83" style="fill:#FFFFFF;" width="0.616" height="0.616"/>
							</g>
							<g>
								<rect x="254.827" y="467.83" style="fill:#FFFFFF;" width="0.616" height="0.616"/>
							</g>
							<g>
								<path style="fill:#FFFFFF;" d="M255.205,468.082h-0.14c0-3.248-2.642-5.89-5.89-5.89c-3.248,0-5.89,2.642-5.89,5.89h-0.14
									c0-1.611,0.627-3.125,1.766-4.264c1.139-1.139,2.653-1.766,4.264-1.766c1.611,0,3.125,0.627,4.264,1.766
									C254.578,464.957,255.205,466.471,255.205,468.082"/>
							</g>
						</g>
						<g>
							<rect x="248.868" y="461.814" style="fill:#FFFFFF;" width="0.616" height="0.616"/>
						</g>
						<g>
							<rect x="244.95" y="462.052" style="fill:#FFFFFF;" width="8.45" height="0.14"/>
						</g>
						<g>
							<path style="fill:#FFFFFF;" d="M245.174,462.15c0,0.108-0.088,0.196-0.196,0.196c-0.108,0-0.196-0.088-0.196-0.196
								c0-0.108,0.088-0.196,0.196-0.196C245.086,461.954,245.174,462.042,245.174,462.15"/>
						</g>
						<g>
							<path style="fill:#FFFFFF;" d="M253.596,462.15c0,0.108-0.088,0.196-0.196,0.196c-0.108,0-0.196-0.088-0.196-0.196
								c0-0.108,0.088-0.196,0.196-0.196C253.509,461.954,253.596,462.042,253.596,462.15"/>
						</g>
					</g>
				</g>
				<g>
					<path style="fill:#FFFFFF;" d="M314.356,473.409c0,1.559-2.364,1.559-2.364,0C311.993,471.851,314.356,471.851,314.356,473.409
						z"/>
				</g>
				<g>
					<g>
						<g>
							<path style="fill:#FFFFFF;" d="M161.739,466.549l1.772,6.088l1.855-6.088h2.215l-2.823,8.14h-2.33l-0.837-2.396l-0.722-2.708
								l-0.722,2.708l-0.837,2.396h-2.33l-2.839-8.14h2.231l1.855,6.088l1.756-6.088H161.739z"/>
						</g>
						<g>
							<path style="fill:#FFFFFF;" d="M176.713,466.549l1.772,6.088l1.855-6.088h2.215l-2.823,8.14h-2.33l-0.837-2.396l-0.722-2.708
								l-0.722,2.708l-0.837,2.396h-2.33l-2.839-8.14h2.231l1.855,6.088l1.756-6.088H176.713z"/>
						</g>
						<g>
							<path style="fill:#FFFFFF;" d="M191.687,466.549l1.772,6.088l1.855-6.088h2.215l-2.823,8.14h-2.33l-0.837-2.396l-0.722-2.708
								l-0.722,2.708l-0.837,2.396h-2.33l-2.839-8.14h2.231l1.855,6.088l1.756-6.088H191.687z"/>
						</g>
					</g>
					<g>
						<path style="fill:#FFFFFF;" d="M200.908,473.52c0,1.559-2.364,1.559-2.364,0C198.545,471.962,200.908,471.962,200.908,473.52z
							"/>
					</g>
					<g>
						<path style="fill:#FFFFFF;" d="M322.71,473.409c-0.935,0.919-1.919,1.28-3.117,1.28c-2.346,0-4.3-1.411-4.3-4.282
							s1.953-4.284,4.3-4.284c1.149,0,2.035,0.329,2.921,1.199l-1.264,1.329c-0.476-0.428-1.066-0.64-1.623-0.64
							c-1.346,0-2.33,0.985-2.33,2.396c0,1.542,1.05,2.362,2.297,2.362c0.64,0,1.28-0.18,1.772-0.672L322.71,473.409z"/>
					</g>
					<g>
						<path style="fill:#FFFFFF;" d="M331.805,470.472c0,2.33-1.591,4.217-4.217,4.217c-2.626,0-4.201-1.887-4.201-4.217
							c0-2.314,1.609-4.217,4.185-4.217C330.149,466.255,331.805,468.158,331.805,470.472z M325.389,470.472
							c0,1.231,0.739,2.38,2.199,2.38c1.46,0,2.199-1.149,2.199-2.38c0-1.215-0.854-2.396-2.199-2.396
							C326.144,468.077,325.389,469.258,325.389,470.472z"/>
					</g>
					<g>
						<path style="fill:#FFFFFF;" d="M338.572,474.689v-4.332c0-1.068-0.559-2.035-1.658-2.035c-1.082,0-1.722,0.967-1.722,2.035
							v4.332h-2.003v-8.107h1.855l0.148,0.985c0.426-0.82,1.362-1.116,2.133-1.116c0.969,0,1.937,0.394,2.396,1.51
							c0.723-1.149,1.658-1.478,2.708-1.478c2.297,0,3.43,1.412,3.43,3.84v4.365h-2.003v-4.365c0-1.066-0.442-1.97-1.526-1.97
							c-1.082,0-1.756,0.935-1.756,2.003v4.332H338.572z"/>
					</g>
				</g>
			</g>
		</g>
		<g style="opacity:0.61;">
			<g>
				<g>
					<path style="fill:#FFFFFF;" d="M345.988,431.299c-0.006-1.224-0.959-2.121-2.189-2.14c-0.924-0.014-0.832,0.12-0.834-0.867
						c-0.003-1.097-0.007-2.194,0.003-3.292c0.003-0.379-0.112-0.691-0.362-0.976c-2.342-2.668-4.678-5.342-7.019-8.011
						c-0.12-0.137-0.275-0.244-0.414-0.366c-6.214,0-12.427,0-18.641,0c-0.794,0.293-1.14,0.868-1.138,1.709
						c0.01,3.748,0.004,7.496,0.004,11.243c0,0.556-0.003,0.589-0.55,0.551c-1.497-0.102-2.516,0.986-2.497,2.492
						c0.044,3.476,0.013,6.953,0.014,10.429c0.001,1.58,0.867,2.443,2.45,2.449c0.582,0.002,0.582,0.002,0.582,0.6
						c0,2.219-0.001,4.438,0.001,6.657c0.001,1.192,0.58,1.771,1.768,1.771c8.013,0.001,16.027,0.001,24.04,0
						c1.168,0,1.755-0.583,1.757-1.745c0.002-2.256,0-4.512,0.001-6.768c0-0.512,0.002-0.511,0.52-0.515
						c0.271-0.002,0.541,0.008,0.809-0.058c0.996-0.246,1.69-1.044,1.694-2.069C346.003,438.696,346.005,434.997,345.988,431.299z
						 M317.537,417.162c5.337,0,10.674,0,16.01,0c0.548,0,0.554,0.007,0.554,0.561c0.001,2.243-0.001,4.486,0.001,6.73
						c0.001,0.811,0.249,1.059,1.06,1.059c1.91,0.001,3.821,0,5.731,0.001c0.458,0,0.479,0.021,0.481,0.483
						c0.003,0.887,0.002,1.775,0,2.662c-0.001,0.477-0.024,0.498-0.504,0.499c-3.895,0.001-7.79,0-11.684,0
						c-3.882,0-7.765,0-11.647,0c-0.55,0-0.552-0.001-0.552-0.561c-0.001-3.624-0.001-7.247,0-10.871
						C316.987,417.166,316.991,417.162,317.537,417.162z M340.822,451.579c-3.883,0.001-7.766,0-11.65,0c-3.871,0-7.742,0-11.613,0
						c-0.572,0-0.574-0.002-0.574-0.579c-0.001-1.997-0.001-3.994,0.001-5.991c0-0.464,0.023-0.486,0.478-0.487
						c7.803-0.001,15.607-0.001,23.41,0c0.478,0,0.499,0.02,0.499,0.503c0.002,1.997,0.001,3.994,0,5.991
						C341.375,451.574,341.37,451.579,340.822,451.579z"/>
				</g>
				<g>
					<g>
						<rect x="327.418" y="417.053" style="fill:#FFFFFF;" width="1.757" height="1.054"/>
					</g>
					<g>
						<rect x="325.662" y="418.107" style="fill:#FFFFFF;" width="1.757" height="1.054"/>
					</g>
					<g>
						<rect x="327.418" y="419.161" style="fill:#FFFFFF;" width="1.757" height="1.054"/>
					</g>
					<g>
						<rect x="325.662" y="420.215" style="fill:#FFFFFF;" width="1.757" height="1.054"/>
					</g>
					<g>
						<rect x="327.418" y="421.269" style="fill:#FFFFFF;" width="1.757" height="1.054"/>
					</g>
					<g>
						<rect x="325.662" y="422.323" style="fill:#FFFFFF;" width="1.757" height="1.054"/>
					</g>
					<g>
						<rect x="327.418" y="423.378" style="fill:#FFFFFF;" width="1.757" height="1.054"/>
					</g>
					<g>
						<rect x="325.662" y="424.432" style="fill:#FFFFFF;" width="1.757" height="1.054"/>
					</g>
					<g>
						<rect x="327.418" y="425.486" style="fill:#FFFFFF;" width="1.757" height="1.054"/>
					</g>
					<g>
						<rect x="325.662" y="426.54" style="fill:#FFFFFF;" width="1.757" height="1.054"/>
					</g>
					<g>
						<rect x="327.418" y="427.594" style="fill:#FFFFFF;" width="1.757" height="1.054"/>
					</g>
					<g>
						<rect x="325.662" y="428.648" style="fill:#FFFFFF;" width="1.757" height="1.054"/>
					</g>
				</g>
			</g>
			<g>
				<path style="fill:#FFFFFF;" d="M187.637,431.299c-0.006-1.224-0.959-2.121-2.189-2.14c-0.924-0.014-0.832,0.12-0.834-0.867
					c-0.003-1.097-0.007-2.194,0.003-3.292c0.003-0.379-0.112-0.691-0.362-0.976c-2.342-2.668-4.678-5.342-7.019-8.011
					c-0.12-0.137-0.275-0.244-0.414-0.366c-6.214,0-12.427,0-18.641,0c-0.794,0.293-1.14,0.868-1.138,1.709
					c0.01,3.748,0.004,7.496,0.004,11.243c0,0.556-0.003,0.589-0.55,0.551c-1.497-0.102-2.516,0.986-2.497,2.492
					c0.044,3.476,0.013,6.953,0.014,10.429c0.001,1.58,0.867,2.443,2.45,2.449c0.582,0.002,0.582,0.002,0.582,0.6
					c0,2.219-0.001,4.438,0.001,6.657c0.001,1.192,0.58,1.771,1.768,1.771c8.013,0.001,16.027,0.001,24.04,0
					c1.168,0,1.755-0.583,1.757-1.745c0.002-2.256,0-4.512,0.001-6.768c0-0.512,0.002-0.511,0.52-0.515
					c0.271-0.002,0.541,0.008,0.809-0.058c0.996-0.246,1.69-1.044,1.694-2.069C187.652,438.696,187.655,434.997,187.637,431.299z
					 M159.187,417.162c5.337,0,10.674,0,16.01,0c0.548,0,0.554,0.007,0.554,0.561c0.001,2.243-0.001,4.486,0.001,6.73
					c0.001,0.811,0.249,1.059,1.06,1.059c1.91,0.001,3.821,0,5.731,0.001c0.458,0,0.479,0.021,0.481,0.483
					c0.003,0.887,0.002,1.775,0,2.662c-0.001,0.477-0.024,0.498-0.504,0.499c-3.895,0.001-7.79,0-11.684,0
					c-3.882,0-7.765,0-11.647,0c-0.55,0-0.552-0.001-0.552-0.561c-0.001-3.624-0.001-7.247,0-10.871
					C158.636,417.166,158.64,417.162,159.187,417.162z M182.472,451.579c-3.883,0.001-7.766,0-11.65,0c-3.871,0-7.742,0-11.613,0
					c-0.572,0-0.574-0.002-0.574-0.579c-0.001-1.997-0.001-3.994,0.001-5.991c0-0.464,0.023-0.486,0.478-0.487
					c7.803-0.001,15.607-0.001,23.41,0c0.478,0,0.499,0.02,0.499,0.503c0.002,1.997,0.001,3.994,0,5.991
					C183.024,451.574,183.019,451.579,182.472,451.579z"/>
			</g>
			<g>
				<path style="fill:#FFFFFF;" d="M159.779,440.669v-7.897h2.779c0.375,0,0.726,0.061,1.053,0.182
					c0.327,0.121,0.612,0.292,0.855,0.513c0.242,0.221,0.434,0.483,0.573,0.789c0.14,0.305,0.21,0.642,0.21,1.009
					c0,0.375-0.07,0.715-0.21,1.02c-0.14,0.305-0.331,0.568-0.573,0.789c-0.243,0.221-0.528,0.392-0.855,0.513
					c-0.327,0.121-0.678,0.182-1.053,0.182h-1.29v2.901H159.779z M162.58,436.356c0.39,0,0.684-0.111,0.882-0.331
					c0.199-0.22,0.298-0.474,0.298-0.761c0-0.14-0.024-0.276-0.072-0.408c-0.048-0.132-0.121-0.248-0.221-0.347
					c-0.099-0.099-0.223-0.178-0.37-0.237c-0.147-0.059-0.32-0.089-0.518-0.089h-1.312v2.173H162.58z"/>
				<path style="fill:#FFFFFF;" d="M166.308,432.771h1.731l3.177,5.294h0.088l-0.088-1.522v-3.772h1.478v7.897h-1.566l-3.353-5.592
					h-0.088l0.088,1.522v4.07h-1.467V432.771z"/>
				<path style="fill:#FFFFFF;" d="M177.922,436.334h3.872c0.022,0.089,0.04,0.195,0.055,0.32c0.014,0.125,0.022,0.25,0.022,0.375
					c0,0.507-0.077,0.985-0.231,1.434c-0.154,0.449-0.397,0.849-0.728,1.202c-0.353,0.375-0.776,0.666-1.268,0.871
					c-0.493,0.206-1.055,0.309-1.688,0.309c-0.574,0-1.114-0.103-1.622-0.309c-0.507-0.206-0.948-0.492-1.323-0.86
					c-0.375-0.367-0.673-0.803-0.894-1.307c-0.221-0.504-0.331-1.053-0.331-1.649c0-0.595,0.11-1.145,0.331-1.649
					c0.221-0.504,0.518-0.939,0.894-1.307c0.375-0.367,0.816-0.654,1.323-0.86c0.507-0.206,1.048-0.309,1.622-0.309
					c0.64,0,1.211,0.11,1.715,0.331c0.504,0.221,0.935,0.526,1.296,0.915l-1.025,1.004c-0.258-0.272-0.544-0.48-0.861-0.623
					c-0.316-0.143-0.695-0.215-1.136-0.215c-0.361,0-0.703,0.065-1.026,0.193c-0.324,0.129-0.607,0.311-0.85,0.546
					c-0.242,0.235-0.436,0.52-0.579,0.855c-0.143,0.335-0.215,0.708-0.215,1.119c0,0.412,0.072,0.785,0.215,1.12
					c0.143,0.335,0.338,0.62,0.584,0.855c0.246,0.235,0.531,0.418,0.855,0.546c0.323,0.129,0.669,0.193,1.037,0.193
					c0.419,0,0.773-0.061,1.064-0.182c0.29-0.121,0.538-0.278,0.744-0.469c0.148-0.132,0.275-0.3,0.381-0.502
					c0.106-0.202,0.189-0.428,0.248-0.678h-2.482V436.334z"/>
			</g>
			<g>
				<path style="fill:#FFFFFF;" d="M224.019,431.299c-0.006-1.224-0.959-2.121-2.189-2.14c-0.924-0.014-0.832,0.12-0.834-0.867
					c-0.003-1.097-0.007-2.194,0.003-3.292c0.003-0.379-0.112-0.691-0.362-0.976c-2.342-2.668-4.678-5.342-7.019-8.011
					c-0.12-0.137-0.275-0.244-0.414-0.366c-6.214,0-12.427,0-18.641,0c-0.794,0.293-1.14,0.868-1.138,1.709
					c0.01,3.748,0.004,7.496,0.004,11.243c0,0.556-0.003,0.589-0.55,0.551c-1.497-0.102-2.516,0.986-2.497,2.492
					c0.044,3.476,0.013,6.953,0.014,10.429c0.001,1.58,0.867,2.443,2.45,2.449c0.582,0.002,0.582,0.002,0.582,0.6
					c0,2.219-0.001,4.438,0.001,6.657c0.001,1.192,0.58,1.771,1.768,1.771c8.013,0.001,16.027,0.001,24.04,0
					c1.168,0,1.755-0.583,1.757-1.745c0.002-2.256,0-4.512,0.001-6.768c0-0.512,0.002-0.511,0.52-0.515
					c0.271-0.002,0.541,0.008,0.809-0.058c0.997-0.246,1.69-1.044,1.694-2.069C224.034,438.696,224.036,434.997,224.019,431.299z
					 M195.568,417.162c5.337,0,10.674,0,16.01,0c0.548,0,0.554,0.007,0.554,0.561c0.001,2.243-0.001,4.486,0.001,6.73
					c0.001,0.811,0.249,1.059,1.06,1.059c1.91,0.001,3.821,0,5.731,0.001c0.458,0,0.479,0.021,0.481,0.483
					c0.003,0.887,0.002,1.775,0,2.662c-0.001,0.477-0.024,0.498-0.504,0.499c-3.895,0.001-7.79,0-11.684,0
					c-3.882,0-7.765,0-11.647,0c-0.55,0-0.552-0.001-0.552-0.561c-0.001-3.624-0.001-7.247,0-10.871
					C195.018,417.166,195.022,417.162,195.568,417.162z M218.854,451.579c-3.883,0.001-7.766,0-11.65,0c-3.871,0-7.742,0-11.613,0
					c-0.572,0-0.574-0.002-0.574-0.579c-0.001-1.997-0.001-3.994,0.001-5.991c0-0.464,0.023-0.486,0.478-0.487
					c7.803-0.001,15.607-0.001,23.41,0c0.478,0,0.499,0.02,0.499,0.503c0.002,1.997,0.001,3.994,0,5.991
					C219.406,451.574,219.401,451.579,218.854,451.579z"/>
			</g>
			<g>
				<path style="fill:#FFFFFF;" d="M205.111,432.771h1.699l2.967,7.897h-1.644l-0.651-1.886h-3.044l-0.651,1.886h-1.643
					L205.111,432.771z M206.997,437.415l-0.706-1.974l-0.287-0.96h-0.088l-0.287,0.96l-0.706,1.974H206.997z"/>
				<path style="fill:#FFFFFF;" d="M211.331,434.536c-0.125,0-0.245-0.024-0.359-0.072c-0.114-0.048-0.213-0.114-0.298-0.199
					c-0.084-0.084-0.151-0.182-0.198-0.292c-0.048-0.11-0.072-0.232-0.072-0.364s0.024-0.254,0.072-0.364
					c0.048-0.11,0.114-0.208,0.198-0.292c0.084-0.084,0.184-0.151,0.298-0.198c0.114-0.048,0.233-0.072,0.359-0.072
					c0.257,0,0.478,0.09,0.662,0.27c0.184,0.181,0.276,0.399,0.276,0.656s-0.092,0.476-0.276,0.656
					C211.809,434.446,211.589,434.536,211.331,434.536z M210.615,440.669v-5.404h1.445v5.404H210.615z"/>
			</g>
			<g>
				<path style="fill:#FFFFFF;" d="M261.044,431.299c-0.006-1.224-0.959-2.121-2.189-2.14c-0.924-0.014-0.832,0.12-0.834-0.867
					c-0.003-1.097-0.007-2.194,0.003-3.292c0.003-0.379-0.112-0.691-0.362-0.976c-2.342-2.668-4.678-5.342-7.019-8.011
					c-0.12-0.137-0.275-0.244-0.414-0.366c-6.214,0-12.427,0-18.641,0c-0.794,0.293-1.14,0.868-1.138,1.709
					c0.01,3.748,0.004,7.496,0.004,11.243c0,0.556-0.003,0.589-0.55,0.551c-1.497-0.102-2.516,0.986-2.497,2.492
					c0.044,3.476,0.013,6.953,0.014,10.429c0.001,1.58,0.867,2.443,2.45,2.449c0.582,0.002,0.582,0.002,0.582,0.6
					c0,2.219-0.001,4.438,0.001,6.657c0.001,1.192,0.58,1.771,1.768,1.771c8.013,0.001,16.027,0.001,24.04,0
					c1.168,0,1.755-0.583,1.757-1.745c0.002-2.256,0-4.512,0.001-6.768c0-0.512,0.002-0.511,0.52-0.515
					c0.271-0.002,0.541,0.008,0.809-0.058c0.996-0.246,1.69-1.044,1.694-2.069C261.059,438.696,261.061,434.997,261.044,431.299z
					 M232.593,417.162c5.337,0,10.674,0,16.01,0c0.548,0,0.554,0.007,0.554,0.561c0.001,2.243-0.001,4.486,0.001,6.73
					c0.001,0.811,0.249,1.059,1.06,1.059c1.91,0.001,3.821,0,5.731,0.001c0.458,0,0.479,0.021,0.481,0.483
					c0.003,0.887,0.002,1.775,0,2.662c-0.001,0.477-0.024,0.498-0.504,0.499c-3.895,0.001-7.79,0-11.684,0
					c-3.882,0-7.765,0-11.647,0c-0.55,0-0.552-0.001-0.552-0.561c-0.001-3.624-0.001-7.247,0-10.871
					C232.042,417.166,232.047,417.162,232.593,417.162z M255.878,451.579c-3.883,0.001-7.766,0-11.65,0c-3.871,0-7.742,0-11.613,0
					c-0.572,0-0.574-0.002-0.574-0.579c-0.001-1.997-0.001-3.994,0.001-5.991c0-0.464,0.023-0.486,0.478-0.487
					c7.803-0.001,15.607-0.001,23.41,0c0.478,0,0.499,0.02,0.499,0.503c0.002,1.997,0.001,3.994,0,5.991
					C256.431,451.574,256.426,451.579,255.878,451.579z"/>
			</g>
			<g>
				<path style="fill:#FFFFFF;" d="M236.361,440.845c-0.338,0-0.662-0.048-0.971-0.143c-0.309-0.095-0.592-0.239-0.849-0.43
					c-0.257-0.191-0.481-0.425-0.673-0.7c-0.191-0.276-0.342-0.597-0.452-0.965l1.401-0.551c0.103,0.397,0.283,0.726,0.54,0.987
					c0.257,0.261,0.596,0.392,1.015,0.392c0.154,0,0.303-0.02,0.447-0.061c0.143-0.04,0.272-0.099,0.386-0.176
					s0.204-0.175,0.27-0.292c0.066-0.118,0.099-0.254,0.099-0.408c0-0.147-0.026-0.279-0.077-0.397
					c-0.051-0.117-0.138-0.227-0.259-0.331c-0.121-0.103-0.28-0.202-0.475-0.298c-0.195-0.095-0.435-0.195-0.722-0.298l-0.485-0.176
					c-0.213-0.073-0.429-0.173-0.645-0.298c-0.217-0.125-0.413-0.276-0.59-0.452c-0.177-0.176-0.322-0.384-0.436-0.623
					c-0.114-0.239-0.171-0.509-0.171-0.81c0-0.309,0.06-0.597,0.182-0.866c0.121-0.268,0.294-0.503,0.518-0.706
					c0.224-0.202,0.492-0.36,0.805-0.474s0.66-0.171,1.042-0.171c0.397,0,0.74,0.053,1.031,0.16
					c0.291,0.107,0.537,0.243,0.739,0.408c0.202,0.165,0.366,0.348,0.491,0.546c0.125,0.199,0.217,0.386,0.276,0.563l-1.312,0.551
					c-0.074-0.221-0.208-0.419-0.402-0.596c-0.195-0.176-0.462-0.265-0.8-0.265c-0.324,0-0.592,0.075-0.805,0.226
					c-0.213,0.151-0.32,0.348-0.32,0.59c0,0.235,0.103,0.436,0.309,0.601c0.206,0.165,0.533,0.325,0.982,0.48l0.497,0.165
					c0.316,0.111,0.605,0.237,0.866,0.381c0.261,0.143,0.485,0.314,0.673,0.513c0.187,0.199,0.331,0.425,0.43,0.678
					c0.1,0.254,0.149,0.546,0.149,0.877c0,0.412-0.083,0.767-0.248,1.064c-0.165,0.298-0.377,0.542-0.634,0.734
					c-0.258,0.191-0.548,0.335-0.872,0.43C236.986,440.797,236.67,440.845,236.361,440.845z"/>
				<path style="fill:#FFFFFF;" d="M239.516,432.771h1.61l1.633,4.754l0.287,1.015h0.088l0.309-1.015l1.699-4.754h1.61l-2.879,7.897
					h-1.566L239.516,432.771z"/>
				<path style="fill:#FFFFFF;" d="M251.097,436.334h3.871c0.022,0.089,0.04,0.195,0.055,0.32c0.015,0.125,0.023,0.25,0.023,0.375
					c0,0.507-0.078,0.985-0.232,1.434c-0.154,0.449-0.397,0.849-0.728,1.202c-0.353,0.375-0.775,0.666-1.268,0.871
					c-0.493,0.206-1.055,0.309-1.688,0.309c-0.574,0-1.114-0.103-1.621-0.309c-0.507-0.206-0.949-0.492-1.324-0.86
					c-0.375-0.367-0.673-0.803-0.894-1.307c-0.22-0.504-0.331-1.053-0.331-1.649c0-0.595,0.11-1.145,0.331-1.649
					c0.221-0.504,0.518-0.939,0.894-1.307c0.375-0.367,0.816-0.654,1.324-0.86c0.507-0.206,1.047-0.309,1.621-0.309
					c0.64,0,1.211,0.11,1.715,0.331c0.504,0.221,0.936,0.526,1.296,0.915l-1.026,1.004c-0.257-0.272-0.544-0.48-0.861-0.623
					c-0.316-0.143-0.694-0.215-1.136-0.215c-0.36,0-0.702,0.065-1.026,0.193c-0.323,0.129-0.607,0.311-0.849,0.546
					c-0.243,0.235-0.436,0.52-0.579,0.855c-0.143,0.335-0.215,0.708-0.215,1.119c0,0.412,0.072,0.785,0.215,1.12
					c0.143,0.335,0.338,0.62,0.585,0.855c0.246,0.235,0.531,0.418,0.854,0.546c0.324,0.129,0.669,0.193,1.037,0.193
					c0.419,0,0.774-0.061,1.064-0.182c0.29-0.121,0.539-0.278,0.745-0.469c0.147-0.132,0.274-0.3,0.38-0.502
					c0.107-0.202,0.189-0.428,0.248-0.678h-2.482V436.334z"/>
			</g>
			<g>
				<path style="fill:#FFFFFF;" d="M297.3,431.299c-0.006-1.224-0.959-2.121-2.189-2.14c-0.924-0.014-0.832,0.12-0.834-0.867
					c-0.003-1.097-0.007-2.194,0.003-3.292c0.003-0.379-0.112-0.691-0.362-0.976c-2.342-2.668-4.678-5.342-7.019-8.011
					c-0.12-0.137-0.275-0.244-0.414-0.366c-6.214,0-12.427,0-18.641,0c-0.794,0.293-1.14,0.868-1.138,1.709
					c0.01,3.748,0.004,7.496,0.004,11.243c0,0.556-0.003,0.589-0.55,0.551c-1.497-0.102-2.516,0.986-2.497,2.492
					c0.044,3.476,0.013,6.953,0.014,10.429c0.001,1.58,0.867,2.443,2.45,2.449c0.582,0.002,0.582,0.002,0.582,0.6
					c0,2.219-0.001,4.438,0.001,6.657c0.001,1.192,0.58,1.771,1.768,1.771c8.013,0.001,16.027,0.001,24.04,0
					c1.168,0,1.755-0.583,1.757-1.745c0.002-2.256,0-4.512,0.001-6.768c0-0.512,0.002-0.511,0.52-0.515
					c0.271-0.002,0.541,0.008,0.809-0.058c0.996-0.246,1.69-1.044,1.694-2.069C297.315,438.696,297.318,434.997,297.3,431.299z
					 M268.85,417.162c5.337,0,10.674,0,16.01,0c0.548,0,0.554,0.007,0.554,0.561c0.001,2.243-0.001,4.486,0.001,6.73
					c0.001,0.811,0.249,1.059,1.06,1.059c1.91,0.001,3.821,0,5.731,0.001c0.458,0,0.479,0.021,0.481,0.483
					c0.003,0.887,0.002,1.775,0,2.662c-0.001,0.477-0.024,0.498-0.504,0.499c-3.895,0.001-7.79,0-11.684,0
					c-3.882,0-7.765,0-11.647,0c-0.55,0-0.552-0.001-0.552-0.561c-0.001-3.624-0.001-7.247,0-10.871
					C268.299,417.166,268.303,417.162,268.85,417.162z M292.135,451.579c-3.883,0.001-7.766,0-11.65,0c-3.871,0-7.742,0-11.613,0
					c-0.572,0-0.574-0.002-0.574-0.579c-0.001-1.997-0.001-3.994,0.001-5.991c0-0.464,0.023-0.486,0.478-0.487
					c7.803-0.001,15.607-0.001,23.41,0c0.478,0,0.499,0.02,0.499,0.503c0.001,1.997,0.001,3.994,0,5.991
					C292.687,451.574,292.682,451.579,292.135,451.579z"/>
			</g>
			<g>
				<path style="fill:#FFFFFF;" d="M272.966,434.183v1.831h3.165v1.412h-3.165v1.831h3.518v1.412h-5.007v-7.897h5.007v1.412H272.966
					z"/>
				<path style="fill:#FFFFFF;" d="M277.852,440.669v-7.897h2.779c0.375,0,0.726,0.061,1.053,0.182
					c0.327,0.121,0.612,0.292,0.855,0.513c0.243,0.221,0.434,0.483,0.574,0.789c0.14,0.305,0.209,0.642,0.209,1.009
					c0,0.375-0.07,0.715-0.209,1.02c-0.14,0.305-0.331,0.568-0.574,0.789c-0.243,0.221-0.528,0.392-0.855,0.513
					c-0.327,0.121-0.678,0.182-1.053,0.182h-1.29v2.901H277.852z M280.653,436.356c0.389,0,0.684-0.111,0.882-0.331
					c0.199-0.22,0.298-0.474,0.298-0.761c0-0.14-0.024-0.276-0.072-0.408c-0.048-0.132-0.121-0.248-0.221-0.347
					c-0.099-0.099-0.222-0.178-0.37-0.237c-0.147-0.059-0.32-0.089-0.518-0.089h-1.312v2.173H280.653z"/>
				<path style="fill:#FFFFFF;" d="M286.797,440.845c-0.338,0-0.662-0.048-0.971-0.143c-0.309-0.095-0.592-0.239-0.849-0.43
					c-0.257-0.191-0.482-0.425-0.673-0.7c-0.191-0.276-0.342-0.597-0.452-0.965l1.401-0.551c0.103,0.397,0.283,0.726,0.541,0.987
					c0.257,0.261,0.595,0.392,1.015,0.392c0.154,0,0.303-0.02,0.447-0.061c0.143-0.04,0.272-0.099,0.386-0.176
					c0.114-0.077,0.204-0.175,0.27-0.292c0.066-0.118,0.1-0.254,0.1-0.408c0-0.147-0.026-0.279-0.077-0.397
					c-0.051-0.117-0.138-0.227-0.259-0.331c-0.121-0.103-0.279-0.202-0.474-0.298c-0.195-0.095-0.436-0.195-0.723-0.298
					l-0.485-0.176c-0.213-0.073-0.428-0.173-0.645-0.298c-0.217-0.125-0.414-0.276-0.59-0.452c-0.176-0.176-0.322-0.384-0.436-0.623
					c-0.114-0.239-0.171-0.509-0.171-0.81c0-0.309,0.061-0.597,0.182-0.866c0.121-0.268,0.294-0.503,0.518-0.706
					c0.224-0.202,0.493-0.36,0.805-0.474c0.312-0.114,0.66-0.171,1.042-0.171c0.397,0,0.741,0.053,1.031,0.16
					c0.29,0.107,0.537,0.243,0.739,0.408c0.202,0.165,0.365,0.348,0.491,0.546c0.125,0.199,0.217,0.386,0.276,0.563l-1.312,0.551
					c-0.074-0.221-0.208-0.419-0.403-0.596c-0.195-0.176-0.462-0.265-0.799-0.265c-0.324,0-0.592,0.075-0.805,0.226
					c-0.213,0.151-0.32,0.348-0.32,0.59c0,0.235,0.103,0.436,0.309,0.601c0.206,0.165,0.533,0.325,0.982,0.48l0.496,0.165
					c0.316,0.111,0.605,0.237,0.866,0.381c0.261,0.143,0.485,0.314,0.673,0.513c0.187,0.199,0.331,0.425,0.43,0.678
					c0.099,0.254,0.149,0.546,0.149,0.877c0,0.412-0.083,0.767-0.248,1.064c-0.165,0.298-0.377,0.542-0.634,0.734
					c-0.258,0.191-0.548,0.335-0.872,0.43C287.422,440.797,287.105,440.845,286.797,440.845z"/>
			</g>
			<g>
				<path style="fill:#FFFFFF;" d="M321.394,439.168l4.004-4.985h-3.827v-1.412h5.559v1.5l-3.96,4.985h4.004v1.412h-5.779V439.168z"
					/>
				<path style="fill:#FFFFFF;" d="M328.409,432.771h1.489v7.897h-1.489V432.771z"/>
				<path style="fill:#FFFFFF;" d="M331.486,440.669v-7.897h2.779c0.375,0,0.726,0.061,1.053,0.182
					c0.327,0.121,0.612,0.292,0.855,0.513s0.434,0.483,0.574,0.789c0.14,0.305,0.209,0.642,0.209,1.009
					c0,0.375-0.07,0.715-0.209,1.02c-0.14,0.305-0.331,0.568-0.574,0.789c-0.243,0.221-0.528,0.392-0.855,0.513
					c-0.327,0.121-0.678,0.182-1.053,0.182h-1.29v2.901H331.486z M334.288,436.356c0.389,0,0.684-0.111,0.882-0.331
					c0.199-0.22,0.298-0.474,0.298-0.761c0-0.14-0.024-0.276-0.072-0.408c-0.048-0.132-0.121-0.248-0.221-0.347
					c-0.099-0.099-0.222-0.178-0.37-0.237c-0.147-0.059-0.32-0.089-0.518-0.089h-1.312v2.173H334.288z"/>
			</g>
		</g>
		<g style="opacity:0.61;">
			<path style="fill:#FFFFFF;" d="M300.133,433.27h9.067v2.242h-9.067V433.27z M300.133,437.136h9.067v2.243h-9.067V437.136z"/>
		</g>
	</g>
	<g style="opacity:0.61;">
		<path style="fill:#FFFFFF;" d="M156.756,478.878h1.607c1.263,0,2.114,0.812,2.114,1.974c0,1.161-0.851,1.973-2.114,1.973h-1.607
			V478.878z M158.34,482.464c1.049,0,1.725-0.665,1.725-1.612c0-0.947-0.677-1.613-1.725-1.613h-1.167v3.225H158.34z"/>
		<path style="fill:#FFFFFF;" d="M165.139,480.851c0-1.15,0.879-2.007,2.075-2.007c1.184,0,2.069,0.851,2.069,2.007
			c0,1.156-0.885,2.007-2.069,2.007C166.019,482.858,165.139,482.002,165.139,480.851z M168.866,480.851
			c0-0.942-0.705-1.635-1.652-1.635c-0.953,0-1.663,0.693-1.663,1.635c0,0.941,0.71,1.635,1.663,1.635
			C168.162,482.486,168.866,481.793,168.866,480.851z"/>
		<path style="fill:#FFFFFF;" d="M179.596,478.878l-1.331,3.947h-0.44l-1.156-3.366l-1.161,3.366h-0.434l-1.331-3.947h0.429
			l1.139,3.394l1.178-3.394h0.389l1.161,3.411l1.156-3.411H179.596z"/>
		<path style="fill:#FFFFFF;" d="M187.731,478.878v3.947h-0.344l-2.537-3.202v3.202h-0.417v-3.947h0.344l2.543,3.203v-3.203H187.731
			z"/>
		<path style="fill:#FFFFFF;" d="M193.093,478.878h0.417v3.586h2.21v0.361h-2.627V478.878z"/>
		<path style="fill:#FFFFFF;" d="M200.061,480.851c0-1.15,0.879-2.007,2.075-2.007c1.184,0,2.069,0.851,2.069,2.007
			c0,1.156-0.885,2.007-2.069,2.007C200.941,482.858,200.061,482.002,200.061,480.851z M203.788,480.851
			c0-0.942-0.705-1.635-1.652-1.635c-0.953,0-1.663,0.693-1.663,1.635c0,0.941,0.71,1.635,1.663,1.635
			C203.083,482.486,203.788,481.793,203.788,480.851z"/>
		<path style="fill:#FFFFFF;" d="M211.636,481.77h-2.199l-0.474,1.054h-0.434l1.804-3.947h0.412l1.804,3.947h-0.44L211.636,481.77z
			 M211.484,481.432l-0.947-2.12l-0.947,2.12H211.484z"/>
		<path style="fill:#FFFFFF;" d="M217.28,478.878h1.607c1.263,0,2.114,0.812,2.114,1.974c0,1.161-0.851,1.973-2.114,1.973h-1.607
			V478.878z M218.864,482.464c1.049,0,1.725-0.665,1.725-1.612c0-0.947-0.677-1.613-1.725-1.613h-1.167v3.225H218.864z"/>
		<path style="fill:#FFFFFF;" d="M234.041,481.77h-2.199l-0.474,1.054h-0.434l1.804-3.947h0.412l1.804,3.947h-0.44L234.041,481.77z
			 M233.889,481.432l-0.947-2.12l-0.947,2.12H233.889z"/>
		<path style="fill:#FFFFFF;" d="M239.685,478.878h0.417v3.586h2.21v0.361h-2.627V478.878z"/>
		<path style="fill:#FFFFFF;" d="M247.082,478.878h0.417v3.586h2.21v0.361h-2.627V478.878z"/>
		<path style="fill:#FFFFFF;" d="M260.449,479.239v1.551h2.041v0.361h-2.041v1.675h-0.417v-3.947h2.706v0.361H260.449z"/>
		<path style="fill:#FFFFFF;" d="M267.678,478.878h0.417v3.947h-0.417V478.878z"/>
		<path style="fill:#FFFFFF;" d="M273.456,478.878h0.417v3.586h2.21v0.361h-2.627V478.878z"/>
		<path style="fill:#FFFFFF;" d="M283.644,482.464v0.361h-2.791v-3.947h2.706v0.361h-2.289v1.404h2.041v0.355h-2.041v1.466H283.644z
			"/>
		<path style="fill:#FFFFFF;" d="M294.672,479.239v1.551h2.041v0.361h-2.041v1.675h-0.417v-3.947h2.706v0.361H294.672z"/>
		<path style="fill:#FFFFFF;" d="M301.5,480.851c0-1.15,0.879-2.007,2.075-2.007c1.184,0,2.069,0.851,2.069,2.007
			c0,1.156-0.885,2.007-2.069,2.007C302.379,482.858,301.5,482.002,301.5,480.851z M305.226,480.851
			c0-0.942-0.705-1.635-1.652-1.635c-0.953,0-1.663,0.693-1.663,1.635c0,0.941,0.71,1.635,1.663,1.635
			C304.522,482.486,305.226,481.793,305.226,480.851z"/>
		<path style="fill:#FFFFFF;" d="M313.351,482.825l-0.902-1.269c-0.102,0.011-0.203,0.017-0.316,0.017h-1.06v1.252h-0.417v-3.947
			h1.477c1.004,0,1.613,0.507,1.613,1.353c0,0.62-0.327,1.054-0.902,1.24l0.964,1.353H313.351z M313.328,480.231
			c0-0.632-0.417-0.992-1.207-0.992h-1.048v1.979h1.048C312.911,481.218,313.328,480.851,313.328,480.231z"/>
		<path style="fill:#FFFFFF;" d="M322.907,478.878v3.947h-0.4v-3.158l-1.551,2.656h-0.197l-1.551-2.639v3.14h-0.4v-3.947h0.344
			l1.714,2.926l1.697-2.926H322.907z"/>
		<path style="fill:#FFFFFF;" d="M330.744,481.77h-2.199l-0.473,1.054h-0.434l1.804-3.947h0.411l1.804,3.947h-0.44L330.744,481.77z
			 M330.592,481.432l-0.947-2.12l-0.947,2.12H330.592z"/>
		<path style="fill:#FFFFFF;" d="M336.957,479.239h-1.387v-0.361h3.192v0.361h-1.387v3.586h-0.417V479.239z"/>
		<path style="fill:#FFFFFF;" d="M343.063,482.346l0.164-0.321c0.282,0.276,0.784,0.479,1.302,0.479c0.739,0,1.06-0.31,1.06-0.699
			c0-1.083-2.43-0.417-2.43-1.877c0-0.581,0.451-1.083,1.455-1.083c0.446,0,0.908,0.13,1.224,0.35l-0.141,0.333
			c-0.338-0.22-0.733-0.327-1.083-0.327c-0.722,0-1.043,0.321-1.043,0.716c0,1.083,2.43,0.429,2.43,1.866
			c0,0.581-0.462,1.077-1.472,1.077C343.937,482.858,343.356,482.65,343.063,482.346z"/>
	</g>
</g>
<g>
</g>
<g>
	<path style="fill:#3159A3;" d="M277.372,413.974c0-7.045-0.031-14.09,0.021-21.134c0.014-1.833,0.1-3.681,0.618-5.474
		c1.122-3.88,3.733-5.073,6.663-5.002c3.627,0.087,5.715,2.097,6.503,5.776c0.579,2.703,0.41,5.434,0.413,8.156
		c0.009,11.21-0.022,22.419-0.033,33.629c-0.001,1.589,0.015,1.608,1.599,1.612c3.983,0.012,7.966-0.006,11.948,0.01
		c1.751,0.007,3.447,0.335,5.05,1.057c0.81,0.366,1.548,0.835,2.061,1.603c0.329,0.491,0.6,0.577,0.856-0.114
		c3.159-8.553,6.311-17.109,9.516-25.645c2.436-6.486,4.687-13.043,7.366-19.437c1.736-4.142,5.439-6.721,9.696-6.749
		c4.396-0.028,8.282,2.494,9.964,6.796c2.065,5.285,3.944,10.644,5.868,15.983c2.41,6.692,4.818,13.386,7.162,20.101
		c1.311,3.757,2.814,7.448,3.891,11.288c1.019,3.633-0.361,6.992-3.509,8.351c-3.475,1.501-7.215,0.324-9.142-2.874
		c-1.333-2.212-1.827-4.735-2.634-7.14c-0.635-1.894-0.59-1.908-2.571-1.909c-6.491,0-12.981,0.015-19.471-0.019
		c-0.985-0.006-1.526,0.245-1.833,1.265c-0.617,2.044-1.343,4.059-2.112,6.052c-0.806,2.085-2.059,3.862-4.19,4.774
		c-2.802,1.198-6.273,0.079-7.849-2.52c-0.433-0.713-0.676-0.889-1.353-0.25c-1.867,1.761-4.294,2.14-6.683,2.206
		c-5.086,0.142-10.179,0.079-15.268,0.089c-2.394,0.005-4.783,0.077-7.163-0.409c-3.172-0.647-4.822-2.408-5.113-5.638
		c-0.6-6.664-0.14-13.341-0.281-20.01c-0.031-1.474-0.004-2.95-0.004-4.425H277.372z M339.453,397.482
		c-0.274,0.811-0.437,1.292-0.599,1.773c-2.183,6.458-4.37,12.914-6.546,19.374c-0.398,1.181-0.378,1.22,0.89,1.226
		c4.019,0.018,8.04-0.009,12.059,0.024c1.011,0.008,1.175-0.317,0.875-1.248c-1.489-4.63-2.921-9.278-4.38-13.918
		C341.028,402.411,340.29,400.113,339.453,397.482"/>
	<path style="fill:#3159A3;" d="M142.411,328.863c-0.022,6.937-1.12,12.967-4.304,18.494c-3.781,6.563-9.267,11.121-16.541,13.161
		c-7.968,2.235-15.903,1.896-23.553-1.57c-3.304-1.497-6.059-3.733-8.537-6.362c-3.981-4.224-6.167-9.293-7.328-14.903
		c-1.014-4.9-1.086-9.822-0.331-14.733c0.718-4.665,2.237-9.066,4.894-13.043c4.536-6.792,10.854-10.883,18.83-12.307
		c7.963-1.422,15.709-0.511,22.69,3.707c6.132,3.706,10.223,9.24,12.425,16.111c0.53,1.655,0.99,3.333,1.217,5.046
		C142.182,324.797,142.567,327.135,142.411,328.863 M96.81,330.742c-0.034,1.486,0.298,4.146,1.087,6.741
		c2.525,8.304,9.949,12.9,18.305,10.324c5.996-1.848,8.865-6.546,10.116-12.366c0.878-4.087,0.768-8.223-0.084-12.303
		c-0.854-4.088-2.715-7.662-6.145-10.196c-5.982-4.418-16.368-3.353-20.599,4.726C97.528,321.412,96.878,325.381,96.81,330.742"/>
	<path style="fill:#3159A3;" d="M471.044,329.566c0.238,6.227-0.925,12.261-4.137,17.758c-4.834,8.274-12.039,12.998-21.59,14.216
		c-4.797,0.611-9.515,0.344-14.132-0.938c-6.252-1.737-11.289-5.332-15.068-10.63c-3.799-5.325-5.499-11.333-5.853-17.812
		c-0.231-4.23,0.002-8.412,1.009-12.516c1.497-6.101,4.523-11.338,9.262-15.519c4.418-3.897,9.619-5.959,15.437-6.73
		c5.709-0.755,11.224-0.196,16.621,1.779c5.307,1.943,9.451,5.359,12.686,9.934c3.962,5.603,5.774,11.877,5.766,18.706
		C471.043,328.365,471.044,328.918,471.044,329.566 M425.602,328.481c-0.003,4.203,0.382,7.323,1.551,10.329
		c3.176,8.166,11.072,11.57,18.761,8.705c4.161-1.551,6.706-4.755,8.22-8.763c2.205-5.835,2.138-11.807,0.311-17.701
		c-1.796-5.793-6.492-11.117-14.714-10.614c-4.808,0.295-8.404,2.467-10.954,6.466C426.33,320.741,425.666,325.045,425.602,328.481"
		/>
	<path style="fill:#3159A3;" d="M190.418,336.032c0-4.13,0.002-8.137,0-12.144c-0.003-4.98-0.036-9.959-0.004-14.939
		c0.013-2.061,0.094-4.123,0.704-6.128c1.103-3.623,3.633-4.926,6.671-4.853c3.547,0.085,5.899,2.414,6.461,5.831
		c0.688,4.187,0.341,8.391,0.363,12.583c0.062,12.32,0.012,24.642-0.003,36.962c-0.002,1.638-0.333,3.211-0.988,4.722
		c-0.739,1.705-2.105,2.625-3.843,2.915c-2.825,0.47-5.297-0.26-7.392-2.327c-2.406-2.372-4.297-5.152-6.373-7.782
		c-3.305-4.188-6.543-8.43-9.79-12.663c-3.698-4.822-7.375-9.662-11.059-14.495c-0.152-0.2-0.24-0.467-0.724-0.517
		c0,1.509,0.001,3.004,0,4.499c-0.007,8.299,0.004,16.598-0.034,24.897c-0.009,1.977-0.424,3.902-1.575,5.559
		c-1.717,2.473-4.242,2.907-6.98,2.487c-2.569-0.393-4.052-2.085-4.854-4.462c-0.538-1.595-0.647-3.252-0.651-4.913
		c-0.022-8.742-0.032-17.483-0.035-26.225c-0.002-5.901,0.007-11.803,0.026-17.704c0.006-1.699,0.114-3.382,0.675-5.018
		c1.091-3.179,3.812-4.712,7.132-4.145c2.787,0.477,4.586,2.307,6.193,4.334c3.185,4.015,6.237,8.135,9.368,12.193
		c3.075,3.985,6.197,7.935,9.266,11.924c2.189,2.844,4.324,5.73,6.49,8.591C189.677,335.502,189.844,335.854,190.418,336.032"/>
	<path style="fill:#3159A3;" d="M347.956,326.14c0.057-4.554-0.17-12.371,0.112-20.183c0.087-2.412,0.61-4.791,2.551-6.465
		c3.172-2.735,9.69-2.096,11.001,3.797c0.364,1.637,0.416,3.289,0.42,4.948c0.009,4.315,0.023,8.63-0.012,12.945
		c-0.007,0.879,0.214,1.252,1.168,1.249c7.852-0.034,15.705-0.044,23.557-0.013c1.037,0.004,1.345-0.36,1.336-1.35
		c-0.036-4.131-0.07-8.262,0.004-12.391c0.042-2.348,0.092-4.713,1.037-6.953c0.637-1.511,1.7-2.557,3.166-3.155
		c3.488-1.423,8.33-0.609,9.534,5.016c0.224,1.044,0.436,2.092,0.435,3.172c-0.008,15.195,0.012,30.39-0.038,45.585
		c-0.008,2.424-0.556,4.765-2.31,6.634c-2.86,3.045-8.728,2.185-10.611-1.536c-1.18-2.332-1.158-4.864-1.207-7.355
		c-0.089-4.495-0.05-8.992-0.005-13.488c0.01-1.014-0.293-1.317-1.321-1.311c-7.856,0.042-15.713,0.041-23.569,0.004
		c-0.966-0.004-1.178,0.344-1.175,1.22c0.015,5.347-0.004,10.695-0.033,16.042c-0.008,1.561-0.255,3.093-0.901,4.526
		c-1.256,2.789-3.548,3.922-7.234,3.621c-2.448-0.2-4.509-2.103-5.32-4.807c-0.584-1.945-0.561-3.938-0.571-5.922
		C347.935,343.115,347.956,336.258,347.956,326.14"/>
	<path style="fill:#3159A3;" d="M386.305,420.756c0,2.025,0.009,3.968-0.002,5.912c-0.018,3.505-0.041,7.01-0.076,10.514
		c-0.016,1.531-0.322,2.999-0.987,4.391c-1.209,2.535-3.594,3.794-6.401,3.588c-4.454-0.326-6.328-3.195-6.556-7.941
		c-0.241-5.007-0.125-10.031-0.125-15.048c0.001-10.107,0.028-20.215,0.047-30.322c0.002-1.147,0.161-2.261,0.444-3.385
		c0.665-2.638,2.291-4.215,4.911-4.822c1.152-0.266,2.319-0.519,3.497-0.509c5.493,0.049,10.995-0.29,16.477,0.271
		c4.499,0.46,8.771,1.775,12.348,4.567c4.289,3.35,6.553,7.846,6.659,13.397c0.067,3.511-0.411,6.841-2.341,9.841
		c-2.622,4.076-6.433,6.385-11.113,7.371c-0.318,0.067-0.769-0.048-0.91,0.273c-0.178,0.405,0.271,0.641,0.504,0.899
		c3.512,3.885,7.043,7.752,10.547,11.644c1.711,1.902,3.307,3.901,3.787,6.51c0.512,2.78-0.651,5.366-2.951,6.752
		c-2.327,1.403-5.442,1.254-7.611-0.386c-2.536-1.917-4.336-4.515-6.318-6.934c-4.346-5.306-8.641-10.653-12.961-15.981
		C386.993,421.135,386.856,420.854,386.305,420.756 M386.309,403.39c0,2.101,0.028,4.202-0.014,6.301
		c-0.016,0.812,0.26,1.122,1.08,1.108c1.99-0.033,3.98-0.029,5.97,0.005c1.384,0.023,2.709-0.187,3.997-0.7
		c3.321-1.322,4.669-3.812,4.327-8.042c-0.221-2.732-2.298-4.899-5.318-5.615c-3.06-0.726-6.163-0.295-9.246-0.394
		c-0.73-0.024-0.803,0.455-0.799,1.033C386.319,399.188,386.311,401.289,386.309,403.39"/>
	<path style="fill:#3159A3;" d="M128.014,405.869c0-5.016,0.002-10.031-0.001-15.047c-0.001-1.494,0.262-2.939,0.812-4.323
		c1.237-3.112,3.202-4.179,6.57-4.099c4.365,0.104,6.442,3.412,6.527,7.584c0.168,8.258,0.076,16.521,0.125,24.782
		c0.019,3.283,0.151,6.561,1.099,9.746c1.608,5.398,5.388,8.145,11.028,8.255c3.832,0.074,7.151-0.834,9.621-3.951
		c1.527-1.927,2.261-4.187,2.689-6.557c1.051-5.816,0.326-11.687,0.488-17.532c0.112-4.054,0.014-8.114,0.034-12.172
		c0.01-1.951,0.18-3.883,0.814-5.755c0.914-2.697,2.9-4.187,5.985-4.429c2.679-0.21,5.041,1.122,6.221,3.555
		c0.957,1.971,1.179,4.11,1.187,6.252c0.03,8.963,0.102,17.927-0.028,26.889c-0.087,5.931-1.215,11.656-4.606,16.715
		c-3.505,5.231-8.439,8.292-14.53,9.655c-4.488,1.004-9.004,1.128-13.502,0.316c-9.719-1.753-16.246-7.248-19.167-16.796
		c-0.944-3.085-1.391-6.248-1.378-9.479c0.019-4.536,0.005-9.072,0.005-13.609H128.014z"/>
	<path style="fill:#3159A3;" d="M232.279,361.622c-5.424,0-10.64-0.886-15.421-3.61c-1.323-0.753-2.527-1.658-3.441-2.904
		c-2.475-3.376-0.638-8.161,3.397-9.252c2.569-0.695,4.879,0.036,7.248,0.692c3.654,1.012,7.255,2.336,11.141,2.01
		c2.175-0.182,3.972-1.14,5.165-3.002c1.944-3.035,0.957-6.762-2.304-8.645c-2.899-1.674-6.133-2.5-9.295-3.5
		c-3.387-1.071-6.67-2.388-9.627-4.392c-4.353-2.95-6.099-7.224-6.143-12.328c-0.083-9.511,6.014-15.922,14.146-18.361
		c5.769-1.731,11.582-1.584,17.323,0.105c2.663,0.784,5.173,1.993,6.857,4.391c1.489,2.119,1.517,4.372,0.346,6.583
		c-1.017,1.923-3.835,3.07-6.12,2.773c-2.827-0.368-5.499-1.4-8.291-1.892c-2.4-0.423-4.793-0.443-6.934,0.994
		c-2.778,1.865-2.857,5.182-0.242,7.238c2.385,1.875,5.241,2.635,8.042,3.544c4.568,1.482,9.014,3.21,12.729,6.396
		c4.754,4.079,6.093,9.36,5.442,15.358c-1.064,9.8-9.4,15.909-17.532,17.277C236.606,361.458,234.45,361.578,232.279,361.622"/>
	<path style="fill:#3159A3;" d="M28.945,328.976c-0.16-4.432,0.707-9.247,2.619-13.891c1.467-3.564,3.586-6.66,6.315-9.363
		c1.839-1.822,3.72-3.622,6.039-4.797c3.353-1.698,6.827-3.051,10.625-3.515c2.356-0.288,4.699-0.469,7.052-0.29
		c4.496,0.342,8.83,1.294,12.626,3.905c1.862,1.281,3.515,2.801,3.716,5.227c0.386,4.648-3.456,7.807-8.046,6.697
		c-2.29-0.554-4.54-1.26-6.862-1.702c-8.427-1.604-15.013,2.246-17.571,10.452c-1.739,5.581-1.747,11.203,0.253,16.733
		c2.406,6.654,8.246,10.255,15.295,9.73c3.454-0.257,6.619-1.479,9.783-2.642c4.845-1.78,8.611,2.784,7.983,6.617
		c-0.397,2.42-1.944,4.095-3.852,5.446c-3.17,2.246-6.786,3.337-10.588,3.892c-4.842,0.707-9.648,0.459-14.362-0.811
		c-5.182-1.396-9.582-4.144-13.174-8.142C31.457,346.582,28.775,338.772,28.945,328.976"/>
	<path style="fill:#3159A3;" d="M263.754,329.728c0-7.596-0.003-15.192,0.002-22.788c0.001-1.112,0.206-2.193,0.51-3.265
		c0.694-2.451,2.339-3.868,4.764-4.418c1.548-0.351,3.122-0.531,4.716-0.526c5.532,0.016,11.064-0.019,16.595,0.049
		c2.03,0.025,4.047,0.378,5.89,1.299c2.113,1.056,3.097,2.817,3.129,5.185c0.033,2.375-0.927,4.136-3.017,5.244
		c-1.762,0.933-3.698,1.265-5.658,1.296c-3.835,0.06-7.672,0.055-11.508,0.009c-1.031-0.012-1.443,0.254-1.416,1.354
		c0.068,2.726,0.054,5.456,0.012,8.183c-0.016,0.999,0.32,1.348,1.345,1.336c3.245-0.042,6.493-0.054,9.736,0.048
		c2.269,0.071,4.468,0.44,6.523,1.629c3.099,1.793,3.486,8.061-0.466,9.923c-1.727,0.813-3.532,1.284-5.442,1.293
		c-3.43,0.016-6.861,0.039-10.29-0.004c-1.042-0.013-1.425,0.323-1.406,1.393c0.054,2.949,0.046,5.9-0.007,8.85
		c-0.018,1.005,0.3,1.343,1.33,1.334c4.056-0.036,8.114-0.003,12.171,0.038c1.895,0.02,3.722,0.37,5.459,1.204
		c1.964,0.942,2.901,2.494,3.067,4.616c0.19,2.432-0.654,4.333-2.774,5.601c-2.047,1.225-4.364,1.367-6.636,1.403
		c-5.895,0.093-11.794,0.067-17.69,0.038c-1.21-0.007-2.434-0.155-3.626-0.378c-3.204-0.604-4.96-2.535-5.227-5.829
		c-0.326-4.012-0.092-8.037-0.123-12.055c-0.031-4.019-0.007-8.04-0.007-12.059H263.754z"/>
	<path style="fill:#3159A3;" d="M233.394,413.893c0-7.414-0.005-14.828,0.005-22.243c0.002-1.145,0.191-2.261,0.483-3.381
		c0.816-3.132,3.058-4.437,6.016-4.889c3.192-0.488,6.407-0.225,9.612-0.258c3.577-0.037,7.157-0.017,10.734,0.044
		c2.546,0.044,4.961,0.662,7.084,2.128c0.734,0.506,1.04,1.36,1.324,2.175c1.279,3.672-0.23,6.693-3.911,7.954
		c-2.177,0.745-4.432,0.711-6.675,0.744c-3.172,0.047-6.345,0.032-9.517,0.003c-0.882-0.008-1.192,0.215-1.146,1.198
		c0.098,2.09-0.007,4.189,0,6.284c0.002,0.882,0.082,1.764,0.113,2.647c0.026,0.721,0.506,0.802,1.069,0.802
		c2.872,0,5.746-0.056,8.616,0.027c2.125,0.062,4.279,0.002,6.314,0.86c3.153,1.328,4.145,3.068,3.822,6.853
		c-0.181,2.122-2.119,3.956-4.773,4.618c-1.555,0.388-3.13,0.496-4.716,0.504c-3.024,0.017-6.049,0.04-9.073-0.021
		c-0.953-0.02-1.324,0.232-1.311,1.222c0.041,3.097,0.038,6.195-0.007,9.293c-0.012,0.869,0.371,1.072,1.126,1.069
		c3.097-0.015,6.194-0.004,9.292-0.002c2.467,0.002,4.937-0.1,7.332,0.726c2.998,1.033,4.413,3.009,4.322,6.163
		c-0.074,2.556-1.816,4.531-4.674,5.319c-1.787,0.493-3.607,0.739-5.458,0.739c-5.607,0.002-11.214-0.005-16.821,0.001
		c-1.561,0.002-3.075-0.286-4.588-0.627c-2.773-0.624-3.972-2.58-4.431-5.179c-0.245-1.39-0.198-2.793-0.201-4.192
		c-0.012-6.861-0.005-13.722-0.005-20.583H233.394z"/>
	<path style="fill:#3159A3;" d="M200.142,417.328c0-6.53,0.001-13.06,0-19.591c0-1.565-0.004-1.553-1.607-1.563
		c-1.955-0.013-3.909-0.033-5.863-0.083c-1.491-0.038-2.93-0.386-4.293-0.975c-2.433-1.051-3.584-3.025-3.424-5.75
		c0.161-2.745,1.539-4.522,4.157-5.383c1.947-0.641,3.954-0.87,5.992-0.871c8.117-0.002,16.234-0.017,24.351,0.008
		c2.366,0.007,4.695,0.268,6.901,1.264c2.301,1.039,3.209,2.947,3.269,5.284c0.058,2.266-0.901,4.078-2.976,5.172
		c-1.598,0.843-3.329,1.19-5.116,1.245c-1.954,0.06-3.911,0.123-5.864,0.075c-1-0.024-1.344,0.245-1.338,1.295
		c0.043,7.304,0.065,14.608,0.011,21.912c-0.046,6.269,0.265,12.547-0.221,18.804c-0.204,2.627-1.001,5.178-3.736,6.338
		c-3.657,1.551-8.525,0.682-9.733-4.648c-0.421-1.86-0.501-3.729-0.519-5.6c-0.054-5.644-0.02-11.289-0.02-16.933H200.142z"/>
	<path style="fill:#3159A3;" d="M94.767,417.329c0-6.529,0.004-13.058-0.003-19.587c-0.002-1.574-0.018-1.554-1.61-1.571
		c-2.762-0.03-5.542,0.181-8.267-0.44c-2.281-0.52-4.38-1.44-5.056-3.925c-0.955-3.511,0.171-6.638,4.024-7.883
		c1.708-0.552,3.45-0.79,5.219-0.791c8.853-0.005,17.706-0.003,26.559,0.064c1.956,0.015,3.872,0.427,5.633,1.393
		c2.382,1.307,3.179,3.422,2.916,5.955c-0.249,2.394-1.742,3.874-3.938,4.764c-2.219,0.899-4.546,0.778-6.855,0.866
		c-1.031,0.04-2.069,0.061-3.098-0.004c-1.066-0.067-1.392,0.353-1.383,1.405c0.046,5.126,0.03,10.253,0.024,15.379
		c-0.008,7.745,0.003,15.49-0.066,23.234c-0.013,1.444-0.258,2.892-0.66,4.311c-1.006,3.543-3.925,5.015-7.325,4.572
		c-3.357-0.438-5.183-2.42-5.76-5.752c-0.706-4.071-0.24-8.168-0.358-12.25c-0.094-3.243-0.019-6.492-0.019-9.738H94.767z"/>
	<path style="fill:#3159A3;" d="M307.708,328.216c0.091-6.498-0.135-14.244,0.115-21.987c0.071-2.215,0.51-4.334,1.948-6.105
		c2.918-3.592,9.408-2.597,11.108,1.695c0.601,1.519,0.935,3.092,0.935,4.743c-0.003,12.612,0.012,25.224,0.023,37.836
		c0,0.517,0.047,1.037,0,1.548c-0.088,0.95,0.363,1.196,1.241,1.195c4.169-0.007,8.338,0.011,12.506,0.065
		c1.937,0.025,3.797,0.423,5.529,1.36c2.076,1.123,2.761,2.968,2.745,5.17c-0.016,2.257-1.009,3.968-3.031,5.022
		c-2.128,1.109-4.473,1.22-6.785,1.249c-5.595,0.069-11.192,0.042-16.788,0.007c-1.323-0.008-2.655-0.128-3.964-0.321
		c-3.178-0.469-4.972-2.346-5.363-5.56c-0.317-2.607-0.208-5.231-0.216-7.848C307.697,340.676,307.708,335.069,307.708,328.216"/>
	<path style="fill:#3159A3;" d="M260.277,54.428c3.267,0.727,6.216,2.273,9.323,3.394c9.154,3.304,18.279,6.692,27.416,10.044
		c10.001,3.669,20.104,7.067,29.983,11.055c7.793,3.146,12.473,9.135,14.232,17.222c1.861,8.558-0.279,16.265-6.182,22.751
		c-3.774,4.147-8.604,6.462-14.136,7.537c-5.567,1.081-10.653-0.407-15.748-2.269c-6.891-2.518-13.803-4.977-20.701-7.477
		c-5.821-2.11-11.632-4.245-17.451-6.362c-6.685-2.432-13.382-4.828-20.052-7.3c-2.339-0.867-4.734-1.716-6.664-3.36
		c-3.234-2.754-5.464-6.098-5.986-10.464c-0.811-6.771,2.264-12.854,8.191-16.265c4.516-2.599,9.19-2.515,13.883-0.896
		c6.758,2.333,13.454,4.85,20.158,7.339c5.771,2.143,11.617,4.085,17.315,6.425c0.719,0.295,1.475,0.48,2.266,0.43
		c0.816-0.051,1.509-0.45,1.662-1.22c0.154-0.779-0.709-0.838-1.21-1.024c-5.354-1.995-10.721-3.955-16.081-5.931
		c-6.882-2.537-13.704-5.233-20.651-7.594c-3.287-1.117-6.569-2.202-10.124-2.022c-8.117,0.41-13.715,4.421-16.911,11.819
		c-1.683,3.895-1.594,7.887-0.327,11.891c0.245,0.772,0.441,1.56,0.654,2.342c0.271,0.996-0.089,1.581-1.082,1.928
		c-3.759,1.313-7.502,2.67-11.247,4.023c-9.811,3.543-19.607,7.129-29.436,10.622c-3.645,1.296-7.169,2.941-10.938,3.875
		c-5.048,1.251-9.729,0.449-13.956-2.652c-7.434-5.453-7.732-15.155-4.293-21.185c2.118-3.713,5.556-5.641,9.292-7.053
		c10.24-3.871,20.535-7.595,30.818-11.35c11.878-4.338,23.771-8.634,35.648-12.976c4.984-1.823,9.863-3.931,14.976-5.402
		c0.799-0.23,1.978-0.607,3.877-0.607C258.368,53.716,259.707,54.301,260.277,54.428"/>
	<path style="fill:#3159A3;" d="M251.679,269.407c-25.268,0-50.536,0.02-75.804-0.012c-7.466-0.01-13.959-2.492-19.049-8.112
		c-5.116-5.647-7.226-12.291-6.426-19.876c0.523-4.955,2.472-9.283,5.566-13.148c4.019-5.021,9.251-7.745,15.597-8.6
		c5.403-0.728,10.806-0.603,16.226-0.478c4.388,0.101,8.779,0.05,13.169,0.052c13.87,0.005,27.742-0.123,41.61,0.069
		c4.97,0.069,9.577,1.672,12.919,5.762c4.356,5.331,4.767,12.383,1.326,18.297c-2.957,5.08-7.339,7.806-13.261,8.027
		c-8.335,0.312-16.672,0.12-25.008,0.152c-5.711,0.022-11.423-0.012-17.134,0.01c-1.852,0.007-2.281,0.341-2.465,1.561
		c-0.121,0.803,0.129,1.135,0.992,1.13c4.316-0.023,8.632,0.009,12.949,0.006c8.337-0.006,16.674,0.009,25.011-0.05
		c3.611-0.026,7.218-0.206,10.737-1.18c6.016-1.665,9.817-5.57,11.718-11.443c0.317-0.98,0.712-1.936,1.068-2.904
		c0.377-1.027,1.096-1.437,2.202-1.48c6.858-0.265,13.719-0.18,20.579-0.173c13.682,0.013,27.365,0.037,41.047,0.107
		c3.429,0.018,6.885,0.126,10.07,1.648c5.277,2.521,8.28,6.766,9.008,12.522c0.665,5.269-0.873,9.897-4.82,13.52
		c-3.46,3.175-7.662,4.616-12.349,4.616c-19.478,0-38.956-0.01-58.433-0.014c-5.68-0.001-11.361,0-17.041,0V269.407z"/>
	<path style="fill:#FDCA37;" d="M302.983,215.216c0,1.143,0.008,2.286-0.003,3.428c-0.011,1.214-0.437,1.813-1.669,1.892
		c-3.601,0.232-7.132,1.054-10.738,1.222c-1.266,0.059-1.692-0.281-2.048-1.523c-0.623-2.172-0.304-4.404-0.3-6.591
		c0.004-2.824,0.368-5.666,0.996-8.428c1.443-6.343,4.151-12.117,7.747-17.557c2.698-4.082,6.077-7.682,8.377-12.031
		c0.879-1.662,1.727-3.332,1.785-5.282c0.025-0.819-0.326-1.218-1.045-1.6c-2.624-1.393-5.388-2.483-7.984-3.958
		c-2.391-1.359-4.766-2.748-7.154-4.114c-1.19-0.681-2.232-1.552-3.302-2.389c-0.784-0.613-0.83-1.378-0.118-2.336
		c1.383-1.86,2.825-3.676,4.221-5.528c0.508-0.673,0.986-1.373,1.421-2.096c1.222-2.027,2.489-2.381,4.437-0.98
		c2.256,1.623,4.424,3.369,6.895,4.67c1.114,0.587,2.212,1.226,3.38,1.681c1.363,0.53,2.552,1.397,3.959,1.843
		c2.681,0.849,5.322,1.887,8.139,2.146c2.37,0.218,4.771,0.348,7.144,0.234c2.608-0.125,5.133-0.793,7.572-1.811
		c2.003-0.836,3.953-1.748,5.836-2.823c0.915-0.522,1.458,0.217,1.944,0.79c1.451,1.714,2.857,3.467,4.277,5.206
		c0.792,0.969,1.581,1.939,2.366,2.913c0.851,1.057,0.812,1.683-0.174,2.586c-2.288,2.095-5.096,3.303-7.849,4.61
		c-2.27,1.079-4.683,1.605-7.103,2.226c-2.233,0.573-4.505,0.472-6.721,0.995c-1.16,0.274-1.499,0.788-1.547,1.836
		c-0.089,1.922,0.13,3.829,0.249,5.738c0.318,5.12,0.17,10.243,0.205,15.366c0.037,5.47-0.651,10.887-1.265,16.289
		c-0.496,4.364-1.207,8.73-2.098,13.052c-0.379,1.834-0.544,3.712-0.805,5.569c-0.02,0.146-0.032,0.294-0.058,0.439
		c-0.414,2.292-1.106,2.772-3.38,2.34c-2.624-0.499-5.25-0.987-7.869-1.511c-0.93-0.186-1.791-0.613-2.727-0.824
		c-0.959-0.216-0.719-1.11-0.632-1.758c0.326-2.428,0.647-4.856,1.048-7.276c0.866-5.224,1.866-10.425,2.511-15.688
		c0.43-3.508,0.595-7.027,0.855-10.543c0.052-0.708-0.059-1.397-0.31-2.061c-0.19-0.504-0.448-0.552-0.772-0.108
		c-2.655,3.63-5.027,7.368-6.332,11.774C303.371,208.537,302.798,211.806,302.983,215.216"/>
	<path style="fill:#FDCA37;" d="M319.002,153.288c-5.288,0.16-9.24-4.154-9.079-9.548c0.145-4.867,3.927-8.302,9.56-8.446
		c5.073-0.13,8.651,4.029,8.858,8.618C328.581,149.218,324.415,153.334,319.002,153.288"/>
	<path style="fill:#CC3433;" d="M194.153,216.723c-2.136,0-4.272-0.022-6.408,0.011c-0.848,0.013-1.372-0.343-1.761-1.069
		c-0.939-1.749-1.289-3.678-1.745-5.572c-0.225-0.939-0.567-1.828-0.914-2.719c-0.062-0.159-0.188-0.378-0.319-0.406
		c-0.272-0.058-0.329,0.231-0.423,0.42c-0.608,1.228-0.607,2.572-0.693,3.888c-0.086,1.324-0.084,2.653-0.114,3.98
		c-0.02,0.877-0.444,1.372-1.333,1.453c-0.293,0.027-0.586,0.125-0.875,0.112c-3.658-0.164-7.286,0.249-10.922,0.529
		c-1.419,0.11-1.684-0.186-1.704-1.684c-0.09-6.674,1.139-13.082,3.704-19.259c1.544-3.72,3.533-7.213,5.257-10.84
		c0.538-1.132,0.492-1.238-0.789-1.212c-3.812,0.074-7.236,1.175-10.11,3.793c-2.415,2.2-2.743,2.181-5.228,0.071
		c-2.19-1.859-4.401-3.694-6.554-5.596c-1.458-1.288-1.487-1.826-0.269-3.353c1.827-2.289,4.237-3.863,6.727-5.324
		c4.787-2.809,9.934-4.179,15.508-4.096c4.356,0.064,8.676,0.489,13.007,0.869c3.037,0.266,6.09,0.553,9.119-0.221
		c3.747-0.957,6.506-3.256,8.548-6.413c2.285-3.531,2.983-3.174,5.73-1.37c2.369,1.556,4.874,2.904,7.321,4.34
		c1.603,0.941,1.734,1.443,0.726,2.98c-2.94,4.481-6.418,8.451-10.952,11.394c-3.11,2.019-6.524,3.236-10.2,3.713
		c-1.538,0.2-1.867,0.493-2.114,2.044c-0.444,2.797-0.075,5.594,0.061,8.387c0.291,5.954,1.771,11.629,4.122,17.093
		c0.378,0.878,0.688,1.79,0.976,2.703c0.345,1.095,0.164,1.329-0.96,1.333c-2.139,0.007-4.278,0.002-6.418,0.002V216.723z"/>
	<path style="fill:#CC3433;" d="M197.819,158.57c-0.068,5.364-4.066,9.341-9.312,9.264c-4.784-0.07-8.944-4.479-8.849-9.508
		c0.091-4.843,4.415-9.049,9.437-8.848C194.074,149.678,197.882,153.535,197.819,158.57"/>
	<path style="fill:#669934;" d="M254.363,128.135c9.331,0.2,18.025,2.649,26.102,7.342c3.447,2.003,6.83,4.082,9.874,6.68
		c0.766,0.654,0.881,1.227,0.308,2.071c-2.182,3.213-4.727,6.123-7.318,9.001c-0.626,0.695-1.201,0.641-1.931,0.16
		c-2.648-1.742-5.26-3.554-8.003-5.136c-3.711-2.142-7.632-3.826-11.866-4.703c-1.075-0.222-1.274,0.217-1.081,1.091
		c0.407,1.834,0.802,3.673,1.281,5.488c2.546,9.642,3.269,19.437,2.666,29.369c-0.385,6.335-1.246,12.607-2.08,18.89
		c-0.566,4.27-0.919,8.566-1.264,12.863c-0.41,5.118-0.385,10.236-0.443,15.358c-0.002,0.148,0.02,0.296,0.006,0.442
		c-0.024,0.25-0.005,0.568-0.306,0.641c-0.33,0.079-0.399-0.262-0.532-0.466c-1.069-1.632-2.017-3.339-3.367-4.783
		c-2.085-2.23-4.538-3.858-7.429-4.833c-2.567-0.866-3.092-1.531-2.862-4.289c0.272-3.267,0.702-6.522,1.081-9.78
		c0.332-2.85,0.696-5.697,1.03-8.548c0.403-3.436,0.799-6.873,1.175-10.312c0.104-0.951,0.134-1.911,0.181-2.867
		c0.012-0.245,0.053-0.584-0.282-0.63c-0.257-0.036-0.312,0.253-0.384,0.462c-3.228,9.366-6.884,18.595-9.125,28.278
		c-0.381,1.648-0.756,3.302-1.04,4.969c-0.191,1.124-0.758,1.722-1.882,1.758c-1.289,0.042-2.58,0.051-3.871,0.071
		c-2.212,0.034-4.424,0.119-6.635,0.082c-2.001-0.034-2.358-0.461-2.32-2.453c0.06-3.134,1.016-6.099,1.832-9.075
		c2.37-8.64,5.33-17.091,8.264-25.553c2.918-8.418,5.074-17.02,5.417-25.984c0.074-1.918-0.026-3.829-0.402-5.726
		c-0.164-0.822-0.528-0.944-1.23-0.658c-1.813,0.74-3.28,1.974-4.669,3.302c-3.555,3.4-6.872,6.992-9.216,11.384
		c-0.893,1.671-1.563,1.819-3.216,0.916c-2.786-1.521-5.7-2.774-8.568-4.124c-1.974-0.93-2.161-1.343-1.233-3.317
		c1.501-3.194,3.621-5.996,5.832-8.712c4.688-5.757,10.255-10.473,16.921-13.815c5.231-2.624,10.767-4.188,16.61-4.639
		C251.712,128.246,253.03,128.072,254.363,128.135"/>
	<path style="fill:#669934;" d="M235.665,116.197c0.024-5.196,3.836-8.902,9.136-8.881c4.798,0.019,8.857,4.184,8.853,9.086
		c-0.003,5.135-4.096,9.072-9.422,9.064C239.215,125.46,235.64,121.591,235.665,116.197"/>
</g>
</svg>
